<?xml version="1.0" encoding="utf-8"?>
<!-- Generator: Adobe Illustrator 22.0.0, SVG Export Plug-In . SVG Version: 6.00 Build 0)  -->
<svg version="1.1" id="Layer_1" xmlns="http://www.w3.org/2000/svg" xmlns:xlink="http://www.w3.org/1999/xlink" x="0px" y="0px"
	 viewBox="0 0 187 110" style="enable-background:new 0 0 187 110;" xml:space="preserve">
<style type="text/css">
	.st0{fill:#12284C;}
</style>
<g>
	<path class="st0" d="M11.9,5.6H52L49.5,18H24.4l-1.3,6h23.3L44,35.6H20.6l-1.3,6.1H45l-2.6,12.4H1.8L11.9,5.6z"/>
	<path class="st0" d="M79.4,20.3c0.1-2-0.6-3.2-1.7-4c-1.1-0.8-2.7-1.1-4.4-1.1c-2.5,0-5.8,0.7-5.8,3.9c0,3.7,7.3,3.9,12,5.6
		c8.4,3,11.3,7.6,11.3,13.4c0,11.7-11.4,17.2-21.9,17.2c-11.1,0-21.2-5.1-20.6-17.5h14.5c0,2.7,0.6,4.3,1.8,5.5
		c1.3,1.1,3.1,1.2,5.5,1.2c2.9,0,6.5-1.5,6.5-4.7c0-3.5-5-4-11.7-6.3c-5.9-2-11.6-5.1-11.6-13.2c0-10.9,10.6-16,20.4-16
		c10.3,0,19.6,3.9,19.4,15.8H79.4z"/>
	<path class="st0" d="M140.4,35.7c-0.9,5-4.7,19.6-24.9,19.6c-14.1,0-20.9-9.1-20.9-22.1c0-15.7,9.8-28.8,26.3-28.8
		c10.8,0,20.5,4.7,20.7,19.2h-14.1c0.1-4.6-2-7.1-6.7-7.1c-8.3,0-11.3,9.5-11.3,16.4c0,4,1,10.3,7.8,10.3c4.7,0,7.3-3.2,8.3-7.5
		H140.4z"/>
	<path class="st0" d="M162.9,5.6h14.7l7.5,48.5h-14.7l-0.8-6.9h-15.8l-3.7,6.9h-15.2L162.9,5.6z M159.2,36.8h9.3l-1.6-14.5h-0.1
		L159.2,36.8z"/>
</g>
<g>
	<path class="st0" d="M0.6,66.9h7.2V68H1.9v5.3h5.5v1.1H1.9v5.9h6v1.1H0.6V66.9z"/>
	<path class="st0" d="M15.4,75.1L12,81.3h-1.3l4-7.4L11,66.9h1.4l3.1,5.9l3.1-5.9h1.3L16.1,74l4,7.4h-1.4L15.4,75.1z"/>
	<path class="st0" d="M30.1,74.1h-5.6v7.2h-1.3V66.9h1.3V73h5.6v-6.1h1.3v14.4h-1.3V74.1z"/>
	<path class="st0" d="M35.5,66.9h1.3v14.4h-1.3V66.9z"/>
	<path class="st0" d="M40.8,66.9h4c2.8,0,3.9,1.5,3.9,3.6c0,1.4-0.8,2.8-2.2,3.1v0c1.8,0.3,2.7,1.7,2.7,3.6c0,2.5-1.6,4-4.4,4h-4
		V66.9z M42.1,73.2h2c2.2,0,3.2-1,3.2-2.6c0-1.9-1-2.6-3-2.6h-2.3V73.2z M42.1,80.2h2.4c2.2,0,3.3-1,3.3-3c0-1.9-1.1-3-3.3-3h-2.4
		V80.2z"/>
	<path class="st0" d="M52.7,66.9H54v14.4h-1.3V66.9z"/>
	<path class="st0" d="M60.8,68h-3.7v-1.1h8.7V68h-3.7v13.4h-1.3V68z"/>
	<path class="st0" d="M69,66.9h1.3v14.4H69V66.9z"/>
	<path class="st0" d="M78.7,66.6c3,0,4.6,2.3,4.6,7.5s-1.7,7.5-4.6,7.5s-4.6-2.3-4.6-7.5S75.7,66.6,78.7,66.6z M78.7,80.5
		c2.1,0,3.3-1.7,3.3-6.4c0-4.7-1.3-6.4-3.3-6.4c-2.1,0-3.3,1.7-3.3,6.4C75.3,78.8,76.6,80.5,78.7,80.5z"/>
	<path class="st0" d="M87,66.9h1.7l5.5,12.6h0V66.9h1.3v14.4h-1.7l-5.5-12.6h0v12.6H87V66.9z"/>
	<path class="st0" d="M112.2,70.6c0-1.8-0.8-2.9-2.6-2.9c-1.8,0-2.7,1.2-2.7,2.6c0,4.3,7,1.9,7,7c0,2.8-1.7,4.2-4.4,4.2
		c-2.7,0-4.2-1.5-4.2-4.3v-0.4h1.3v0.5c0,1.8,1,3.1,2.9,3.1c1.8,0,3.1-0.9,3.1-2.9c0-4.3-7-1.8-7-7.1c0-2.3,1.5-3.8,4-3.8
		c2.7,0,3.9,1.4,3.9,3.9H112.2z"/>
	<path class="st0" d="M117.3,66.9h7.2V68h-5.9v5.3h5.5v1.1h-5.5v5.9h6v1.1h-7.3V66.9z"/>
	<path class="st0" d="M128,66.9h4.3c2.4,0,3.7,1.4,3.7,3.6c0,1.7-0.7,3.3-2.6,3.7v0c1.8,0.2,2.4,1.2,2.5,3.4l0,1.6
		c0,0.8,0.1,1.6,0.6,2.1H135c-0.3-0.5-0.4-1.3-0.4-2l0-1.2c-0.1-2.5-0.5-3.4-2.9-3.4h-2.4v6.6H128V66.9z M129.3,73.6h2.2
		c2,0,3.2-0.9,3.2-2.8c0-1.8-0.7-2.8-3.1-2.8h-2.4V73.6z"/>
	<path class="st0" d="M138.6,66.9h1.4l3.2,13.1h0l3.2-13.1h1.4l-3.8,14.4h-1.6L138.6,66.9z"/>
	<path class="st0" d="M151,66.9h1.3v14.4H151V66.9z"/>
	<path class="st0" d="M165,76.4c-0.2,3.3-1.7,5.1-4.3,5.1c-3,0-4.6-2.3-4.6-7.5s1.7-7.5,4.6-7.5c2.9,0,4.1,2.1,4.1,4.5h-1.3
		c0-2-1-3.4-2.9-3.4c-2.1,0-3.3,1.7-3.3,6.4c0,4.7,1.3,6.4,3.3,6.4c1.8,0,2.9-1.6,3-4H165z"/>
	<path class="st0" d="M168.4,66.9h7.2V68h-5.9v5.3h5.5v1.1h-5.5v5.9h6v1.1h-7.3V66.9z"/>
	<path class="st0" d="M185.3,70.6c0-1.8-0.8-2.9-2.6-2.9c-1.8,0-2.7,1.2-2.7,2.6c0,4.3,7,1.9,7,7c0,2.8-1.7,4.2-4.4,4.2
		c-2.7,0-4.2-1.5-4.2-4.3v-0.4h1.3v0.5c0,1.8,1,3.1,2.9,3.1c1.8,0,3.1-0.9,3.1-2.9c0-4.3-7-1.8-7-7.1c0-2.3,1.5-3.8,4-3.8
		c2.7,0,3.9,1.4,3.9,3.9H185.3z"/>
	<path class="st0" d="M7.6,99.1c0.3-0.7,0.4-1.5,0.5-2.7h1.5c0,1-0.6,3.4-1.1,4.1l1.8,2.5H8.5l-0.9-1.3c-1.1,1-1.9,1.6-3.4,1.6
		c-3.4,0-4.1-2.6-4.1-3.9c0-1.4,0.8-2.7,1.9-3.6l1-0.8l-0.4-0.7c-0.5-0.8-1-1.6-1-2.5c0-1.6,1.3-2.7,2.9-2.7c1.8,0,2.9,0.8,2.9,2.7
		c0,1.4-1,2.2-1.9,3l-0.5,0.4L7.6,99.1z M3.7,96.1c-1.1,0.7-2,1.7-2,3.2c0,1.7,1.2,2.6,2.6,2.6c1.1,0,1.8-0.6,2.5-1.3L3.7,96.1z
		 M4.5,93.8c0.6-0.6,1.2-1.2,1.2-2.1c0-0.8-0.6-1.4-1.4-1.4c-0.8,0-1.4,0.6-1.4,1.4c0,0.6,0.4,1.3,0.8,2l0.3,0.5L4.5,93.8z"/>
	<path class="st0" d="M25,98.2c-0.2,2.6-1.2,5.1-4.2,5.1c-4,0-4.5-3.7-4.5-7.2c0-3.5,0.6-7.2,4.5-7.2c2.8,0,4,1.6,4.1,4.3h-1.8
		c0-1.6-0.5-2.9-2.3-2.9c-2.4,0-2.7,2.6-2.7,5.8c0,3.2,0.3,5.8,2.7,5.8c2.1,0,2.4-2,2.4-3.6H25z"/>
	<path class="st0" d="M30.2,92.3c3,0,3.8,2.6,3.8,5.5c0,2.9-0.8,5.5-3.8,5.5c-3,0-3.8-2.6-3.8-5.5C26.4,94.8,27.2,92.3,30.2,92.3z
		 M32.2,97.8c0-2.3-0.3-4.2-2.1-4.2c-1.7,0-2,2-2,4.2c0,2.3,0.3,4.2,2,4.2C31.9,102,32.2,100,32.2,97.8z"/>
	<path class="st0" d="M35.6,92.5h1.6v1.2h0c0.4-1,1.5-1.5,2.5-1.5c2.7,0,2.7,2.1,2.7,3.3v7.4h-1.6v-7.2c0-0.8-0.1-2.1-1.5-2.1
		c-0.9,0-2.1,0.6-2.1,2.1v7.2h-1.6V92.5z"/>
	<path class="st0" d="M45.1,89.5h1.6v3h1.8v1.3h-1.8v6.7c0,0.8,0.2,1.2,1.1,1.2c0.4,0,0.5,0,0.7-0.1v1.3c-0.2,0-0.6,0.1-1.3,0.1
		c-1.7,0-2.1-0.7-2.1-2.1v-7.2h-1.5v-1.3h1.5V89.5z"/>
	<path class="st0" d="M49.8,92.5h1.6v1.6h0c0.5-1,1.1-1.8,2.3-1.8c0.3,0,0.6,0,0.7,0.1V94c-0.2,0-0.4-0.1-0.9-0.1
		c-0.8,0-2.1,0.7-2.1,2.5v6.6h-1.6V92.5z"/>
	<path class="st0" d="M55.4,95.7c0-2.4,1-3.4,3.5-3.4c3.2,0,3.2,1.9,3.2,3v5.8c0,0.4,0,0.8,0.5,0.8c0.2,0,0.3,0,0.4-0.1v1.2
		c-0.1,0-0.5,0.1-1,0.1c-0.6,0-1.4,0-1.5-1.3h0c-0.5,0.9-1.5,1.5-2.5,1.5c-2,0-2.8-1.2-2.8-3c0-1.5,0.6-2.5,2-2.9l2.2-0.7
		c1.2-0.4,1.2-0.7,1.2-1.6c0-1-0.6-1.5-1.7-1.5c-1.8,0-1.8,1.7-1.8,2v0.1H55.4z M60.5,97.3c-0.6,0.6-2,0.8-2.8,1.2
		c-0.5,0.3-0.8,0.7-0.8,1.7c0,1.1,0.4,1.8,1.5,1.8c1.1,0,2.1-0.9,2.1-2V97.3z"/>
	<path class="st0" d="M69.2,95.7c0-1-0.4-2.2-1.7-2.2c-1,0-2,0.5-2,4.3c0,1.4,0,4.1,2,4.1c1.4,0,1.7-1.5,1.7-2.6h1.6
		c0,1.7-0.8,3.9-3.4,3.9c-2.6,0-3.6-1.8-3.6-5.4c0-2.6,0.5-5.6,3.7-5.6c2.8,0,3.3,2.2,3.3,3.5H69.2z"/>
	<path class="st0" d="M73.2,89.5h1.6v3h1.8v1.3h-1.8v6.7c0,0.8,0.2,1.2,1.1,1.2c0.4,0,0.5,0,0.7-0.1v1.3c-0.2,0-0.6,0.1-1.3,0.1
		c-1.7,0-2.1-0.7-2.1-2.1v-7.2h-1.5v-1.3h1.5V89.5z"/>
	<path class="st0" d="M81.1,92.3c3,0,3.8,2.6,3.8,5.5c0,2.9-0.8,5.5-3.8,5.5c-3,0-3.8-2.6-3.8-5.5C77.3,94.8,78.1,92.3,81.1,92.3z
		 M83.1,97.8c0-2.3-0.3-4.2-2.1-4.2c-1.7,0-2,2-2,4.2c0,2.3,0.3,4.2,2,4.2C82.8,102,83.1,100,83.1,97.8z"/>
	<path class="st0" d="M86.4,92.5h1.6v1.6h0c0.5-1,1.1-1.8,2.3-1.8c0.3,0,0.6,0,0.7,0.1V94c-0.2,0-0.4-0.1-0.9-0.1
		c-0.8,0-2.1,0.7-2.1,2.5v6.6h-1.6V92.5z"/>
	<path class="st0" d="M96.9,95.6c0-1.3-0.4-2-1.5-2c-0.5,0-1.7,0.1-1.7,1.6c0,1.2,1.3,1.5,2.6,1.9c1.3,0.4,2.6,0.9,2.6,2.9
		c0,2.2-1.4,3.3-3.4,3.3c-3.5,0-3.6-2.6-3.6-3.7h1.6c0,1.3,0.4,2.4,2,2.4c0.5,0,1.7-0.3,1.7-1.7c0-1.4-1.3-1.7-2.6-2.1
		c-1.3-0.4-2.6-0.8-2.6-3c0-2,1.5-2.9,3.3-2.9c3,0,3.2,2.1,3.2,3.3H96.9z"/>
	<path class="st0" d="M108.2,89.1h2.3l3.7,13.9h-1.8l-1-3.8H107l-1,3.8h-1.8L108.2,89.1z M107.4,97.8h3.7l-1.8-6.7h0L107.4,97.8z"/>
	<path class="st0" d="M120.1,95.6c0-1.3-0.4-2-1.5-2c-0.5,0-1.7,0.1-1.7,1.6c0,1.2,1.3,1.5,2.6,1.9c1.3,0.4,2.6,0.9,2.6,2.9
		c0,2.2-1.4,3.3-3.4,3.3c-3.5,0-3.6-2.6-3.6-3.7h1.6c0,1.3,0.4,2.4,2,2.4c0.5,0,1.7-0.3,1.7-1.7c0-1.4-1.3-1.7-2.6-2.1
		c-1.3-0.4-2.6-0.8-2.6-3c0-2,1.5-2.9,3.3-2.9c3,0,3.2,2.1,3.2,3.3H120.1z"/>
	<path class="st0" d="M128.2,95.6c0-1.3-0.4-2-1.5-2c-0.5,0-1.7,0.1-1.7,1.6c0,1.2,1.3,1.5,2.6,1.9c1.3,0.4,2.6,0.9,2.6,2.9
		c0,2.2-1.4,3.3-3.4,3.3c-3.5,0-3.6-2.6-3.6-3.7h1.6c0,1.3,0.4,2.4,2,2.4c0.5,0,1.7-0.3,1.7-1.7c0-1.4-1.3-1.7-2.6-2.1
		c-1.3-0.4-2.6-0.8-2.6-3c0-2,1.5-2.9,3.3-2.9c3,0,3.2,2.1,3.2,3.3H128.2z"/>
	<path class="st0" d="M135,92.3c3,0,3.8,2.6,3.8,5.5c0,2.9-0.8,5.5-3.8,5.5c-3,0-3.8-2.6-3.8-5.5C131.2,94.8,132,92.3,135,92.3z
		 M137,97.8c0-2.3-0.3-4.2-2.1-4.2c-1.7,0-2,2-2,4.2c0,2.3,0.3,4.2,2,4.2C136.7,102,137,100,137,97.8z"/>
	<path class="st0" d="M145.4,95.7c0-1-0.4-2.2-1.7-2.2c-1,0-2,0.5-2,4.3c0,1.4,0,4.1,2,4.1c1.4,0,1.7-1.5,1.7-2.6h1.6
		c0,1.7-0.8,3.9-3.4,3.9c-2.6,0-3.6-1.8-3.6-5.4c0-2.6,0.5-5.6,3.7-5.6c2.8,0,3.3,2.2,3.3,3.5H145.4z"/>
	<path class="st0" d="M148.7,89.1h1.6v1.9h-1.6V89.1z M148.7,92.5h1.6V103h-1.6V92.5z"/>
	<path class="st0" d="M152.2,95.7c0-2.4,1-3.4,3.5-3.4c3.2,0,3.2,1.9,3.2,3v5.8c0,0.4,0,0.8,0.5,0.8c0.2,0,0.3,0,0.4-0.1v1.2
		c-0.1,0-0.5,0.1-1,0.1c-0.6,0-1.4,0-1.5-1.3h0c-0.5,0.9-1.5,1.5-2.5,1.5c-2,0-2.8-1.2-2.8-3c0-1.5,0.6-2.5,2-2.9l2.2-0.7
		c1.2-0.4,1.2-0.7,1.2-1.6c0-1-0.6-1.5-1.7-1.5c-1.8,0-1.8,1.7-1.8,2v0.1H152.2z M157.3,97.3c-0.6,0.6-2,0.8-2.8,1.2
		c-0.5,0.3-0.8,0.7-0.8,1.7c0,1.1,0.4,1.8,1.5,1.8c1.1,0,2.1-0.9,2.1-2V97.3z"/>
	<path class="st0" d="M161.6,89.5h1.6v3h1.8v1.3h-1.8v6.7c0,0.8,0.2,1.2,1.1,1.2c0.4,0,0.5,0,0.7-0.1v1.3c-0.2,0-0.6,0.1-1.3,0.1
		c-1.7,0-2.1-0.7-2.1-2.1v-7.2h-1.5v-1.3h1.5V89.5z"/>
	<path class="st0" d="M166.3,89.1h1.6v1.9h-1.6V89.1z M166.3,92.5h1.6V103h-1.6V92.5z"/>
	<path class="st0" d="M173.4,92.3c3,0,3.8,2.6,3.8,5.5c0,2.9-0.8,5.5-3.8,5.5c-3,0-3.8-2.6-3.8-5.5
		C169.6,94.8,170.4,92.3,173.4,92.3z M175.4,97.8c0-2.3-0.3-4.2-2.1-4.2c-1.7,0-2,2-2,4.2c0,2.3,0.3,4.2,2,4.2
		C175.1,102,175.4,100,175.4,97.8z"/>
	<path class="st0" d="M178.8,92.5h1.6v1.2h0c0.4-1,1.5-1.5,2.5-1.5c2.7,0,2.7,2.1,2.7,3.3v7.4H184v-7.2c0-0.8-0.1-2.1-1.5-2.1
		c-0.9,0-2.1,0.6-2.1,2.1v7.2h-1.6V92.5z"/>
</g>
</svg>
